<svg width="24" height="24" viewBox="0 0 24 24" fill="none" xmlns="http://www.w3.org/2000/svg">
<path fill-rule="evenodd" clip-rule="evenodd" d="M14.1133 8.80111L16.15 7.18111C15.0612 6.30283 13.6625 5.7749 12.1371 5.7749C9.70732 5.7749 7.59948 7.11399 6.55316 9.07397H6.5535L6.68713 9.18025L6.49511 9.14683H6.49476C6.03461 9.98825 5.77502 10.9438 5.77502 11.9572C5.77502 13.0051 6.05267 13.9912 6.54215 14.8531L6.67256 14.8505L6.55316 14.9487C7.59978 16.8993 9.65147 18.2249 12.0113 18.2249C13.4384 18.2249 14.7526 17.7401 15.8002 16.9255L15.8445 16.9277L15.8448 16.9281C16.9664 16.0539 17.776 14.8186 18.0858 13.4039C18.1771 12.9882 18.225 12.5572 18.225 12.1153C18.225 11.7213 18.1869 11.3358 18.1138 10.9624H15.4532H12V13.4039H15.4035C15.114 14.1531 14.5788 14.7856 13.8928 15.2101L13.872 15.193C13.3262 15.515 12.6902 15.6994 12.0113 15.6994C10.4593 15.6994 9.13152 14.7347 8.58933 13.3696L8.62815 13.232C8.47112 12.8355 8.38553 12.4057 8.38548 11.9572C8.38548 11.5438 8.45835 11.1466 8.59204 10.7766L8.53229 10.6479L8.60158 10.703C9.10591 9.27699 10.4984 8.25204 12.1371 8.25204C12.8629 8.25204 13.5403 8.45308 14.1133 8.80111Z" fill="#3625A9"/>
</svg>
